<?xml version="1.0" encoding="utf-8"?>
<!-- Generator: Adobe Illustrator 19.0.0, SVG Export Plug-In . SVG Version: 6.00 Build 0)  -->
<svg version="1.1" id="Layer_1" xmlns="http://www.w3.org/2000/svg" xmlns:xlink="http://www.w3.org/1999/xlink" x="0px" y="0px"
	 viewBox="0 0 374 203" style="enable-background:new 0 0 374 203;" xml:space="preserve">
<style type="text/css">
	.st0{fill:url(#SVGID_1_);}
	.st1{fill:url(#SVGID_2_);}
	.st2{fill:url(#SVGID_3_);}
	.st3{fill:url(#SVGID_4_);}
	.st4{fill:url(#SVGID_5_);}
	.st5{fill:url(#SVGID_6_);}
	.st6{fill:url(#SVGID_7_);}
	.st7{fill:url(#SVGID_8_);}
	.st8{fill:url(#SVGID_9_);}
	.st9{fill:url(#SVGID_10_);}
	.st10{fill:url(#SVGID_11_);}
	.st11{fill:url(#SVGID_12_);}
	.st12{fill:url(#SVGID_13_);}
	.st13{fill:url(#SVGID_14_);}
	.st14{fill:url(#SVGID_15_);}
	.st15{fill:url(#SVGID_16_);}
	.st16{fill:url(#SVGID_17_);}
	.st17{fill:url(#SVGID_18_);}
	.st18{fill:url(#SVGID_19_);}
	.st19{fill:url(#SVGID_20_);}
	.st20{fill:url(#SVGID_21_);}
	.st21{fill:url(#SVGID_22_);}
	.st22{fill:url(#SVGID_23_);}
	.st23{fill:url(#SVGID_24_);}
	.st24{fill:url(#SVGID_25_);}
	.st25{fill:url(#SVGID_26_);}
</style>
<g>
	<linearGradient id="SVGID_1_" gradientUnits="userSpaceOnUse" x1="17" y1="98.909" x2="345.4394" y2="98.909">
		<stop  offset="0" style="stop-color:#B44298"/>
		<stop  offset="1" style="stop-color:#D4196C"/>
	</linearGradient>
	<path class="st0" d="M78,95v3.2c-1,0.5-1.2,0.9-2.6,1.3c-9.4,3-15.4,5.2-19.4,6.7l-0.2,0.2c-5.2,2-8.6,2.8-10.1,3.6l-5.7,2.6v5.9
		c0,2.3,2.5,6,6.2,8c0.8,1,2.4,2,3.4,2.9c0.2,0.3-0.7,0.5-0.5,0.8c0.3,0.4-0.1,0.9-0.1,1.3v6.4h6.2c1.2,1,2.6,1,4.4,1h2.2l-1.4,0.8
		c-1.2,1.1-4.8,2.4-6.3,5.7l-2.2,1v9.1l7.5,1.7c1.2,1.1,3.5,2.5,5.4,3.6l7.5,5.9l4.9-4.9h1.8l4.5-7.6l2.4,3.6h2.3c1.2,0,2.6,1,4.2,1
		h4.5l2.7-5c1.7-2.1,3.4-5.1,4.9-7.3l4.3,9.9l-1-0.3v4.4l0,0v5.2h13.9l3.2,1.6l0.8-1.6h0.4h8l-1.1-4.8c0.8-0.9,1.4-2.9,1.9-4.4
		c0,0,0-0.5,0-0.5l0.2-0.4l0.5-1.4c0.2-0.6,0.5-1.3,0.7-1.8c1-1.2,1.7-2.6,2.2-3.6c0.3-0.6,0.7-1.4,1.1-2.2l0.6,2l-0.1,3.2h0.6
		c0.1,1,0.2-0.2,0.4,0.4c0.5,3.3,2.7,8.1,11.2,9.9l4.6,0.6l1,0.7l0.8,1.5h1.2c3.9,0,8-4.4,9.1-9.2c1.3-2.7,2.2-5.5,2.7-6.8
		c0.2-0.3,0.4,0.4,0.5,0.1c0,0,0,0.9,0.1,0.9h4.6v-6.5c2-0.7,4.4-1.6,6.1-2.6l1.3-0.4l0.9,1.1c0.5-0.5,1.4,0.4,1.9,0.4h0.1l0.8-2.3
		c0.1-0.1,0.3-1,0.4-1.1c0.1-0.1,0.2-0.6,0.3-0.7l-6.7,14.6l13.2,11.4l2.4,1.1h1.2c3.9,0,8-4.4,9.1-9.2c1.3-2.7,2.2-5.5,2.7-6.8
		c0.2-0.3,0.4,0.4,0.5,0.1c0,0,0,0.9,0.1,0.9h4.6v-5.7c1,3.8,2,6.8,4,8.8v2l3,1.7v5.8l11.3-1.3c2.2-0.3,4.7-0.9,6.4-1.9
		c6-2.5,8.9-3.4,9.9-3.8l1.5,1.3c0.5-0.1,1.1,1.2,1.5,1.2h1.4c1.3,0,2.6-1.9,3.8-2.5l0.5,2l0.2,0.5h2.3c1.4,0,2.8,1,4.1,1h4.5l2.7-5
		c0.1-0.1,0.2-1.1,0.4-1.3c0.6,0.6,1.2,0.7,1.7,1c0.7,1.1,0.2,1.9,1.2,2.7c1.2,2.2,1.5,3.7,4.5,4.4v0.9l0,0v4.2h14.9l2.8,1.2
		l0.6-1.2h8.6l-2.3-6.2c2.3-0.5,4.3-2.8,5.6-3.8h5.4l-0.3-6.2l0.7-2.8v-0.8c2-0.6,5,0.4,6.4-0.4c0.7-0.1,3.1,1.1,4.1,1.1h1.5
		l1.7-2.4c5.7-2.5,8.8-9.4,8.8-14c0-0.8,0-2.4-1.6-6.9l0.2-0.4l-0.3-0.3c-0.1-0.2-0.1-0.4-0.2-0.6c-0.6-3.4-2.7-5.9-5.2-7.9l0,1.6
		c0.9,0.2,1.7,1.9,2.3,1.9h4.8l5.9-9.6l-2-4.7c-0.1-0.7-1.5-2.2-1.5-2.5v-2.6l-0.4-0.7c-3-4.3-5.9-4.8-11-4.8h-3.2
		c-2.6,0-5.8-1.5-9.4-0.5l0.9-4.6c0.9-2.7,1.8-3.8,2.6-6c0.3-0.7,0.5-0.9,0.8-0.9h1.1l2.2-7.4c0.4-1,0.8-2.8,1.2-3.9
		c1.1-2.8,2.3-6.5,3.2-8.2l1.8-3.3l-0.2-1c0.6-1.3-0.3-2.7,0.3-4.4l-0.9-1.5v-1.6c0-1.3,1.2-2.6,0.7-3.8c-0.9-2.7-1.9-3.1-3.5-4.9
		l-2-1.2h-4c-1.6,0-3.2-1.4-5.1-0.5c-1.4,0.5-2.5,0.4-3.4,1.3c0,0,0-0.5,0-0.5c-1.7-4.4-5.5-6.3-8.5-6.3c-0.9-0.3-2-0.7-3.4-0.7
		c-1.6,0-3.2,0.3-4.6,1.1l-3.6,2l-0.7,3.2c0,0,0,0.1-0.1,0.1c-0.1,0.2-0.3,0.5-0.4,0.7c-2.5-2.6-5-3.6-7-4.3l-2.4,0.8
		c-1.8-1.4-4-1-6.9-1h-1.8l-1.6-1c-0.2,0.1-0.4-0.7-0.5-0.7c-2.3,0.5-4,1-5.2,2.1l-0.3-0.2c-1.5-1.9-4.1-4.3-8.2-4.3
		c-1.5,0-2.9,0.3-3.8,0.6c-1.2,0.3-2.6,0.9-3.8,2c-0.4-0.3-0.8-0.7-1.3-0.9l-1.9-1.9l-6.8,3.3h-2.2l-0.8-0.5l-0.8,0.5H232v-1.5v0.7
		l0.8,1.5l-1.6,2.3h-1.6l-0.1-1.2l-1.5-0.4c-3.9,1.1-8.9,1.9-12.5,3.4c-3,1-6.6,1.7-9.6,2.7v-1.3l-8.6,2.3c-0.1-0.3,0.4-0.6,0.3-0.9
		c0-0.6,0.1-2.7-2.8-5.2l-0.8-2.5h-8.1l-1.2,0.5c-2,0.6-3.6,1.5-4.7,2.5h-3v-3.2c-1,0.6,0.1,1.3-0.3,2c-1.2,1.2-2.9,2.4-3.8,3.6
		l-0.8-0.1v0.3c0,0.6,0.4,1.2,0,1.8c-0.9-2.1-2.1-5.5-5.6-7.2c-1.7-1-3.1-1.5-4.3-1.8c-1.9-0.4-4.5-0.8-8-1.2l-0.9-0.1l-0.9,1.7
		c-2.2,0.2-3.9,2-5.3,3h-1.9c-0.6-1-1.1,0-1.6,0h-5.5l-2.6,3.6c-0.5,1-0.9,1-1.4,1.9l-3,1c-0.1-0.3-0.3-0.8-0.4-1.1
		c-0.2-2.3-1.2-3.1-3.2-4.8l-0.9-2.5h-8.5l-1.2-1.3c-2,0.6-3.5,0.6-4.7,1.6l0-0.4c-0.9,0.7-1.5,1.3-2,2.1c-0.8,0.8-1.5,1.6-2.2,2.4
		c-1.2-1.4-2.5-2.8-4.1-3.8l-0.3-0.2c-2.6-1.6-6-2.7-10.7-3.2l-1-1.9l-5.8,1.3L80,31v0.9l0.7,1.5L80.5,36H76v-2.6l0.3,0.7
		c-0.2,0.1,0.2,0.2-0.4,0.4l0-0.3l-4.1,1.2c-3.4,0.9-7,2.3-11,3.9c-3.1,1-6,1.9-8.7,2.8C43.1,45,36.7,47,33,48.5
		c-1.1,0.4-3.6,0.8-4.6,1.2C24.2,51.2,17,53.2,17,59.9v0.6c0,2.9,2.8,6.1,5.9,7.9c0.7,0.9,2.2,1.7,3.1,2.5l0.5,0.2
		c0.3,0.4,0.9,2.4,1.2,2.8l0.2,4.9h3.8c1.1,1,2.4,1,4,1h0.7l-0.7-0.3c-1.7,1.6-4.5,2.7-5.5,4.8L28,85.6v9.1l5.8,1.7
		c0.4,0.4,1.2,0.7,1.2,1.1v4.4h4.2c0.5,0,1.1-0.8,1.7-0.5l7.2,5.1l3.8-4.6H54l4.4-8.7c0.7,0.6,1.4,1.8,2.1,2.1
		C62,96.5,64,98,65.8,98H70 M280.1,59.2C280.1,59.2,280.1,59.2,280.1,59.2c0,0.1-0.1,0.1-0.1,0.2l0-0.1
		C280.1,59.3,280.1,59.2,280.1,59.2z M300,139.5c0.1-0.1,0.3-0.1,0.4-0.2l0,0.6L300,139.5z M311.8,151.7c0.1-0.1,0.1-0.3,0.2-0.4
		c2.1-0.3,3.9-1.3,5.2-2.7l0,0C316,150.2,314,151.4,311.8,151.7z"/>
	<g>
		<g>
			<linearGradient id="SVGID_2_" gradientUnits="userSpaceOnUse" x1="28.7168" y1="66.7817" x2="103.6152" y2="66.7817">
				<stop  offset="0" style="stop-color:#EEB21E"/>
				<stop  offset="1" style="stop-color:#F3D628"/>
			</linearGradient>
			<path class="st1" d="M54.2,80.6c2.5-4.1,3.7-5.9,3.7-5.9h-0.2l-2.4,3h-0.2l2.4-4H58c2.3-3,4.4-7.6,6.4-12.1c0-0.1-0.1-0.7-0.2-1
				c0.1-0.2,0.2-0.6,0.2-0.9c0-0.7-0.5-1.8-1.4-3c0.2-0.3,2.1-1.1,5.9-2.4c1.2-0.4,2.3-0.9,3.2-1.5c1.6-0.2,3.2-0.7,4.6-1.5
				c1.3-0.3,2.6-0.8,3.9-1.4c-1.3,2.4-3.1,3.7-3.2,3.9c0-0.2-0.7-0.5-0.7-0.8v-0.4c-1,0.4-0.2,0.7-0.2,0.8c-2.7,4.6-3.5,7.1-3.5,7.6
				c-1.4,1.7-1.8,2.6-1.8,3l-7.7,11c-2.2,2.7-3.3,4.3-3.3,4.7l0.6,0.9c0.9,0.8,1.4,1.4,1.4,1.9l1.1,0.6c0.1,0,0.5,1.5,1.1,1.5H65
				c0.2,0-1.2-2.4,0.8-4v0.2c0,0.4,0.5,0.5,0.3,0.5c0,0.1,0.5,0.3,0.6,0.5c0,0.1-0.3,1.6-1.4,2.6c0,0.2,0.3,1.2,0.6,1.2H66
				c3.7-4,6.9-8,9.6-13H76c0.6,1,1.2,0.9,1.9,0.9l0.7-0.9c0.4,0,0.9,0.3,1.6,1.3l7.9,14.9c1.4,0.9,2.1,1.4,2.1,1.9
				c0.1,0,0.3-0.1,0.5-0.2l1.1,0.5c0.1-0.2,0.2,0.5,0.2,0.4l0.4,1.1h-1.6v-2.4c-1-0.3,0.5-0.5,0.5-0.7c0-0.3-0.2-1.7-1.5-4.2
				c-0.6-2-1.1-3.6-1.9-4.9c0-0.6-1.1-2.1-3.6-6c-1.5-2.2-2.2-1.8-2.2-2.8h0.4c2.5-1,2.2-4.3,2.2-4.3v1.3h1.8c0,0,1.2-1.9,3.7-3.6
				c0.4,0,1.8-1.4,4.2-3.4l-1.2-0.6c0.4,0-0.5-0.3-0.5-0.6v0.1l0,0v-0.7c0-0.1,2.8-1.3,5.9-3.7c1.2-1.5,2.3-2.3,2.5-2.3
				c0,0.3,0.1,0.7-0.1,1.1c0.1,0,0.3,0.1,0.3,0.2c1.5-1.3,2.3-2.8,2.3-4.4c0-0.6-0.4-1.8-1.2-3.5c-0.7-1.8-1.9-3.3-3.7-4.5
				c-1.4-0.9-3.9-1.6-7.3-1.9c0,0.1-0.1,1-0.2,1c-0.2-0.1-0.4,0.7-0.7,0.7h-0.4c-0.4,0-0.7-0.8-1-0.7c-0.3-0.1-0.7-0.6-1.1-0.6
				c0,0.1-0.1-0.1-0.2-0.1c0,0-0.1-0.1-0.1-0.1c0,0-0.1,0-0.1,0c0-0.1-0.1-0.3-0.2-0.5c-2.7,0.8-4.3,1.2-4.8,1.4
				c-0.1,0-0.3-0.1-0.5-0.2c-0.7,0.4-3.2,1.3-7.3,2.4l-0.5-0.4c-3.1,0.9-6.6,2.1-10.4,3.7c-13.3,4.3-23.2,7.3-27.7,9.1
				c-4,1.5-7.5,2.5-7.5,3v0.6c0,0.1,1.1,0.2,1.2,0.2c0.8,1.4,2.2,3.2,3.2,3.8c1.3,1.6,2.6,3.2,2.7,3.2h0.4l0.8-1
				c0,0.1,0.1-0.2,0.2-0.2c0.8-0.2,2.4-1,4.8-1.8c2.6-1.3,5-2.3,7.2-3c2.8-1,4.3-0.4,4.6-0.4c1.8-1.1,2.9-0.6,3.2-0.6h0.2L54.7,59
				v0.2l1.3,0.3c-1.2,1.6-1.2,2.7-1.2,3.3c-1,2.4-2.6,3.6-2.9,3.7c-0.7,2-2.2,3-3.2,3v2.2h2.6l0.3-1.1c0,0.1,0.1-0.3,0.2-0.3
				l-0.3,0.3c-0.1,0-0.3-0.2-0.5-0.3c-0.1,0-0.5,0.7-1.3,2.2l0.1,0.3c-0.3,0.2-0.7,0.5-1.1,1.1c0,0.1,0,0.2,0.1,0.4
				c0,0.1-0.3,0.3-0.8,0.5c0,0.2,0.1,0.3,0.3,0.3c-0.4,0.4-0.6,0.8-0.6,1.1c-0.5,0-1.3,1.1-2.5,3.3l0.3,0.8
				c-1.6,1.8-2.4,2.9-2.4,3.5l-0.7,0.3c-0.4,0.3-1.8,1.5-2.8,3.5v0.3l1.7,0.5c0.6,0.7,2.2,2.5,4.1,3.6c1.3-1.8,4-4.4,7.5-10.4h0.3
				c0,0-3.5,0.8-6.5,5.5v2.5h2.2l2.7-4.4C53.1,82.6,53.9,80.6,54.2,80.6z M68.7,79.3c-0.6,0.8-0.9,1.2-1.1,1.2
				c0-0.4,0.4-0.9,1.1-1.4V79.3z M68.8,79.7v-0.2c0-0.2,0.1-0.3,0.4-0.4h0.2C69.2,79.5,69,79.7,68.8,79.7z M70.2,78
				c-0.4,0.7-0.7,1-0.9,1L69,78.8c0.1-0.7,0.3-1,0.5-1h0.2V78l-0.4,0.5h0.2c0.4,0,0.5-0.2,0.5-0.7h0.2V78z M73,62.9
				c0.1-0.2,0.2-0.4,0.2-0.5h0.2v0.2c-0.1,0.2-0.2,0.4-0.2,0.5H73V62.9z M72.8,74.1l-0.3,0.7h-0.2c0.2-0.4,0.4-0.7,0.4-0.9h0.1V74.1
				z M73.9,72.7c-0.2,0.5-0.3,0.7-0.5,0.7v-0.2c0.2-0.3,0.4-0.5,0.4-0.7h0.2V72.7z M74.9,72.1l-0.4,0.7h-0.4c-1.4,3-2.2,4-2.2,4
				h-2.3v-2l3.9-4.4c0.2,0.1,0.9,0.6,1.2,0.6C74.6,71.3,74.9,72,74.9,72.1z M91.7,49.8L91.7,49.8h1.8l1.2-1c0-0.1,0.1-0.7,0.2-0.7
				l0.4,1l1.8,0.7h0.2c-0.3,1-1.7,2.3-4.2,4.5c-1.6,1.6-4.7,3.2-9.3,5.9c-0.7,1.4-1.3,1.9-1.9,2c0-0.2,0.1-0.6,0.4-1
				c4.3-7.9,6.8-12.3,7.5-13c0.1,0,0.2,1,0.2,1.1l1.2,0.6H91.7z M74,44.6h0.1c0,0.2-0.1,0.3-0.3,0.3h-0.2
				C73.7,44.7,73.8,44.6,74,44.6z M46.2,79.4c-0.1,0-0.3,0-0.5,0.1l0.3-0.9h0.2V79.4z"/>
		</g>
		<g>
			<linearGradient id="SVGID_3_" gradientUnits="userSpaceOnUse" x1="87.917" y1="51.7046" x2="88.4443" y2="51.7046">
				<stop  offset="0" style="stop-color:#EEB21E"/>
				<stop  offset="1" style="stop-color:#F3D628"/>
			</linearGradient>
			<path class="st2" d="M87.9,51.7v0.4l0.5-0.4l-0.2-0.4C88.1,51.4,87.9,51.5,87.9,51.7z"/>
		</g>
		<g>
			<linearGradient id="SVGID_4_" gradientUnits="userSpaceOnUse" x1="89.1474" y1="49.4194" x2="89.8154" y2="49.4194">
				<stop  offset="0" style="stop-color:#EEB21E"/>
				<stop  offset="1" style="stop-color:#F3D628"/>
			</linearGradient>
			<path class="st3" d="M89.1,49.6v0.4c0.1,0,0.4-0.3,0.7-0.9v-0.2h-0.3C89.5,49.1,89.4,49.3,89.1,49.6z"/>
		</g>
		<g>
			<linearGradient id="SVGID_5_" gradientUnits="userSpaceOnUse" x1="97.7256" y1="57.9976" x2="99.4482" y2="57.9976">
				<stop  offset="0" style="stop-color:#EEB21E"/>
				<stop  offset="1" style="stop-color:#F3D628"/>
			</linearGradient>
			<path class="st4" d="M99.3,57.3c-0.5,0-1.1,0.4-1.5,1.1l0.2,0.4l1.5-1.1L99.3,57.3z"/>
		</g>
		<g>
			<linearGradient id="SVGID_6_" gradientUnits="userSpaceOnUse" x1="118.4678" y1="52.8999" x2="118.8193" y2="52.8999">
				<stop  offset="0" style="stop-color:#EEB21E"/>
				<stop  offset="1" style="stop-color:#F3D628"/>
			</linearGradient>
			<path class="st5" d="M118.8,52.8v-0.2h-0.4v0.6C118.7,53.2,118.8,53.1,118.8,52.8z"/>
		</g>
		<g>
			<linearGradient id="SVGID_7_" gradientUnits="userSpaceOnUse" x1="88.7168" y1="66.7681" x2="166.9131" y2="66.7681">
				<stop  offset="0" style="stop-color:#EEB21E"/>
				<stop  offset="1" style="stop-color:#F3D628"/>
			</linearGradient>
			<path class="st6" d="M96.6,71.5c-2.1,3.3-4.9,7.9-7.9,13.8v0.2c0,1.2,3.9,5.3,7.6,7.3h0.2c0.1,0,0.4-1.5,0.9-2.2
				c1-2.4,1.6-4.1,2-4.1c0.3,0,1.5-2.6,3.6-7.1c1.7-0.2,2.5-0.5,2.5-0.7c2.2-1.1,3.5-2,4-2.6c0.1,0,0.3,0,0.5,0.1
				c0.7-0.3,1.1-0.5,1.1-0.8c2.1-0.8,3.2-1.3,3.2-1.6c0.2-0.3,1.5-1.2,4-2.7c-0.2,2.2-0.4,5.2-0.5,9c0.1,0-0.8,0.1-0.8,0.2
				c-0.1,0-1.2,0.1-1.2,0.2v1.3l2.2,2h-0.2c0.1,3,0.3,4.1,0.5,4.6c0,2,1.3,2.8,3.8,3.3l0.7-0.7c-0.2-0.8-0.3-1.6-0.4-2.3l3.4,2.5
				l0.9-0.2l0.6,0.4c0.3,0,0.4-0.3,0.4-1c1.9-3.9,2.8-6,2.8-6.4c2-3.1,3-4,3-4.9c0.8-1.1,1.1-1.2,1.1-1.2h0.9c1,2,0.1,0.6,2.1,0.6
				v1.4h-1v-1.9c2-0.6,5.1-1.9,8.5-4c2-1.8,3.7-2.8,4.1-3.2c4.4-3,7.5-4.2,9-5.5c0-0.2,0.1,0.6-0.1,0.6H158c0,0-1.1,1-3.2,3h-0.2
				l0.9-1c0.8,0,4.1-3,10-9h-1.8v-2.3V57v1.8h1.8c1.3-1,0.2-4.5,0.2-5.7v-0.6c0-0.9,0.9-1.8,0.5-2.8c0.1,0,0.7-0.1,0.7-0.2
				c-1-1.7-1.3-2.5-1.5-2.6c-0.9-2.3-1.7-3.4-2.5-3.4c0-0.7-3.1-1.4-9.6-2.1c-2.4,0.3-4.3,1.5-5.7,1.9c-1.1-0.4-1.9,0.6-2.4-0.4
				h-0.4c-0.6,1-1-0.1-1.3-0.1c-4.8,9.6-7.2,14.3-7.2,15.2c-2.9,6-4.9,10.2-6,12.8l-8,17.6c-0.2-1.3-0.3-2.4-0.3-3.2
				c0-0.6,0.1-1.3,0.2-2.2l-0.2-0.4c0.1-3.6,0.4-6.1,0.9-7.6c0-0.2-0.1-1-0.2-2.5c0-0.3,0.1-1.2,0.2-2.7c-0.1-0.2-0.2-0.4-0.2-0.6
				c0.2,0,0.4-0.4,0.4-1.2c0-0.9,1.7-2.3,5.2-4.1l-0.2-0.4l-0.7,0.4c0.2-0.8,0.5-0.2,0.9-0.2c0,0.1,0.1,1.2,0.2,1.2h0.2
				c0.3,0-1-2.4-1-2.4v-0.2l0.7-0.4l1.3-0.5c0-0.1,0.2-0.3,0-0.6c0-0.1-0.3-0.5,0.9-1.3c1-1.2,1.1-1.8,1.1-1.8v-0.2l0.8,0.5
				c0.4,0,1.8,0.8,2.3-0.2h-0.4l-1.8,2h-0.2c0.4-1,1.1-2.5,2.3-3.2l1.4-1.3c0-0.1-0.5-0.5-1.6-0.5h-0.4l-2.6-2v-0.2
				c-1,0.5-2.3,4.1-6.3,6.1h-1.7v-4.5c-1-4.4-0.4-7-1-7.9c-1.3-1.7-1.6-2.7-1.6-2.8c0.1,0,0.5-0.2,0.5-0.7c0-0.2-1.4-0.4-2.1-0.4
				l-0.8-0.9v-0.2c0-0.4,0.8-0.5,0.6-0.5c-1.4,0.4-1.6,0.8-1.6,1.3c-2.5,2.3-4.3,4.8-6,7.5c-2,2-3.3,3.9-4.2,5.6
				c-0.9,1.6-1.9,3.3-3.2,5c-1.2,1.2-2.7,2.9-3.5,5C98.3,69.2,96.6,71.3,96.6,71.5z M150.7,69.5c0,0-0.6,0.3-1.6,1.3h-0.2
				c1-1,1.5-1,1.5-2h0.3V69.5z M149.7,68.9v-0.4l4.5,0.2h0.2C154.4,68.8,151.7,67.6,149.7,68.9z M139.6,65.2l2.2-4
				c0-0.1-0.1,0.4-0.2,0.2c2.9-6.7,4.4-8.6,4.4-9.6h0.4c0,1,0.5,2,1.5,2h1.1c0.1,0,0.2,0.3,0.2,0.1c2.9-1.2,6.1-2.1,9.5-2.1h-2v-2.1
				c0,0.6-3,4-9,10.1v0.1l0,0v0.7c0,0-0.4-0.1-0.6-0.2c-0.2,0.1-0.4,0.2-0.4,0.2v0.2l1.2,0.4c-0.1,0,0.2-0.1-0.1-0.2l-1.3,0.2
				l-0.8,0.4v0.4c0,0,0.9-0.1,0.6-0.2c0,0.6,0.2,1.1-0.5,1.3l-0.3-0.4c-0.4,0.2-0.4,0.4-0.4,0.6l0.3,0.4c-0.9,0.8-1.3,2.1-1.3,2.2
				c-0.2,0-0.3,1.1-0.5,0.1h-0.2c-2.6,2-4,2.7-4.2,2.7l0.2,0.3h-0.2l-0.4-1c0-0.3,0.3-1.2,0.9-1.9L139.6,65.2z M128.9,61.3
				c0.1,0,0.3-0.1,0.6-0.2h0.2l-0.2,0.4h-0.6V61.3z M112.7,58.2v0.2c-1,1.2-1,1.9-1,2v2.4h2.3c0,0-0.4-1.9,0.3-2.9
				c0-0.4-0.6-3.1,2.4-6.1v2.1h1.2l-2.2-1.5v-0.4l1.4-0.9c0-0.1,0.4-0.3,0.2-0.5c0.9-1.5,1.7-2.3,1.8-2.3c0,0.8,0.2,1.3,0.3,1.4
				c-0.1,0-0.1,0.1-0.1,0.2l0.2,1.1l-1.1,0.4c0.1,0.2-0.7,0.4-0.7,0.7v0.5c0,2.7,0,4.2-1,4.5V60l1.2,1.4c-0.8,0.8-2.3,3.4-6.5,5.4
				h-0.2l1.6-3.8l-0.4,0.1c-1,2-1.7,3.7-2.1,3.7h-0.2C112.3,63.8,111.7,59.3,112.7,58.2z"/>
		</g>
		<g>
			<linearGradient id="SVGID_8_" gradientUnits="userSpaceOnUse" x1="153.7998" y1="50.6851" x2="155.1357" y2="50.6851">
				<stop  offset="0" style="stop-color:#EEB21E"/>
				<stop  offset="1" style="stop-color:#F3D628"/>
			</linearGradient>
			<polygon class="st7" points="155.1,50.8 155,50.4 153.8,50.6 153.8,51 154.7,51 			"/>
		</g>
		<g>
			<linearGradient id="SVGID_9_" gradientUnits="userSpaceOnUse" x1="186.2138" y1="52.8999" x2="186.5654" y2="52.8999">
				<stop  offset="0" style="stop-color:#EEB21E"/>
				<stop  offset="1" style="stop-color:#F3D628"/>
			</linearGradient>
			<path class="st8" d="M186.6,52.8v-0.2h-0.4v0.6C186.4,53.2,186.6,53.1,186.6,52.8z"/>
		</g>
		<g>
			<linearGradient id="SVGID_10_" gradientUnits="userSpaceOnUse" x1="156.7168" y1="66.7681" x2="260.6611" y2="66.7681">
				<stop  offset="0" style="stop-color:#EEB21E"/>
				<stop  offset="1" style="stop-color:#F3D628"/>
			</linearGradient>
			<path class="st9" d="M156.7,85.3v0.2c0,1.2,3.7,5.3,7.4,7.3h0.2c0.1,0,0.4-1.5,0.9-2.2c1-2.4,1.6-4.1,2-4.1
				c0.3,0,1.5-2.6,3.6-7.1c1.7-0.2,2.5-0.5,2.5-0.7c2.2-1.1,3.5-2,4-2.6c0.1,0,0.3,0,0.5,0.1c0.7-0.3,1.1-0.5,1.1-0.8
				c2.1-0.8,3.2-1.3,3.2-1.6c0.2-0.3,1.5-1.2,4-2.7c-0.2,2.2-0.4,5.2-0.5,9c0.1,0-0.7,0.1-0.7,0.2c-0.1,0-1.1,0.1-1.1,0.2v1.3l2,2
				h-0.2c0.1,3,0.3,4.1,0.5,4.6c0,2,1.3,2.8,3.8,3.3l0.7-0.7c-0.5-2.5-0.7-4.6-0.7-5.9c0-0.6,0.1-1.4,0.2-2.2l-0.2-0.4
				c0.1-3.6,0.4-6.1,0.9-7.6c0-0.2-0.1-1-0.2-2.5c0-0.3,0.1-1.2,0.2-2.7c-0.1-0.2-0.2-0.4-0.2-0.6c0.2,0,0.4,0.4,0.4-0.4
				c0-0.5,0.4,0.1,1.3-0.9h0.1l0.8-1c0,0.1,0.1-0.2,0.2-0.2c0.8-0.2,2.4-1,4.8-1.8c2.6-1.3,5-2.3,7.2-3c2.8-1,4.3-0.4,4.6-0.4
				c1.8-1.1,2.9-0.6,3.2-0.6h0.2l-2.5-1.8v0.2l1.3,0.3c-1.2,1.6-1.2,2.7-1.2,3.3c-1,2.4-2.1,3.6-2.4,3.7c-0.7,2-2.7,3-2.7,3v2.2h1.7
				l0.3-1.1c0,0.1,0.1-0.3,0.2-0.3l-0.3,0.3c-0.1,0-0.3-0.2-0.5-0.3c-0.1,0-0.5,0.7-1.3,2.2l0.1,0.3c-0.3,0.2-0.7,0.5-1.1,1.1
				c0,0.1,0,0.2,0.1,0.4c0,0.1-0.3,0.3-0.8,0.5c0,0.2,0.1,0.3,0.3,0.3c-0.4,0.4-0.6,0.8-0.6,1.1c-0.5,0-1.3,1.1-2.5,3.3l0.3,0.8
				c-1.6,1.8-2.4,2.9-2.4,3.5l-0.7,0.3c-0.4,0.3-1.8,1.5-2.8,3.5v0.3l1.7,0.5c0.6,0.7,2.3,2.5,4.1,3.6c1.3-1.8,4.1-4.4,7.5-10.4h0.3
				c0,0-3.6,0.8-6.6,5.5v2.5h2.3l2.7-5c1.5-2.8,2.3-3.6,2.6-3.6c2.5-4.1,3.7-6.4,3.7-6.4h-0.2l-2.4,3h-0.2l2.4-4h0.5
				c2.3-3,4.4-7.6,6.4-12.1c0-0.1-0.1-0.7-0.2-1c0.1-0.2,0.2-0.6,0.2-0.9c0-0.7-0.5-1.8-1.4-3c0.2-0.3,2.1-1.1,5.9-2.4
				c1.2-0.4,2.3-0.9,3.2-1.5c1.2-0.2,2.4-0.5,3.5-1c0,0.1-0.1,0.1-0.1,0.2c-2,6.6-3.3,9.9-3.9,9.9c-1.3,3.7-2,5.6-2.3,5.7
				c0,0.9-0.4,1.7-1.3,2.5l0.2,1.2l-0.2,0.4c-0.1,0-0.2-0.1-0.2-0.2c-0.2,0-0.8,1.4-1.9,4.3c-2.1,5.5-3.9,9.6-5.5,12.6
				c1.9,1.9,3.4,2.8,4.4,2.8c0.2-0.1,1.2-2.5,3-7.2c1.1-1.7,2.2-2.9,3.2-5.4c0.1,0,0.2,1.1,0.2,1.1h0.2c0.6-2-0.8-5.6,0.2-6.9v0.4
				l1.6,2.5h-1.6v-1h2.1l1.3-0.4c1.2,0,2-1.2,4.8-2.7c0.8,0,2.8-2.4,7.8-6.6v0.2c-3,7.2-5.1,14.5-6.9,19.9c0.9,1.3,3.3,3.6,4.9,3.6
				h0.2c0.7,0,1.1-2.1,1.1-3.1l-0.2-0.8l1.6-5c0.5-0.2,1.2-1.2,1.9-3l-0.2-0.9c0.4,0,0.9-0.6,1.2-1.6l-0.2,0.7l0.2-0.2h0.2l-0.8-0.9
				l-1-1.4v0.2l0,0v-0.6l1.2-0.4c0.1,0,0.7,0.1,0.7,0.2c0.3-0.1,1-0.9,1.8-2.5c2.4-5.5,3.1-8.6,3.6-9.2c2.2-4.6,2.7-7,2.7-7.1v0.2
				l-1,1.8v2.6h2.5c0.2,0-0.7-1.8-0.2-3c1.1-3.3,0.7-6.8,1.7-7.9v1.9h1.9l-2.9-1.9v-0.4c1-0.8,2.2-1.3,2.2-1.8
				c0-0.2,0.5-0.3,0.2-0.4l0.5-1.6c-0.8-1.3-1.4-1.9-2-1.9c-0.4,0-0.7,0.1-1.2,0.4c-0.7,0-1.3,0.8-2.1,2.3
				c-1.1,3.1-2.8,7.4-5.3,12.9c0,1-1.3,2.1-4.1,3.2c-7.6,4.4-11.5,6.6-11.8,6.6c0-0.1,0.1-0.3,0.2-0.6c0.8-1.2,1.2-1.9,1.2-2.1
				c1.9-5.8,4.1-10.9,6.8-15.4c0-0.1-0.1-0.2-0.2-0.2c-0.1-0.3-0.3-0.5-0.4-0.8l0.3-0.1c1-0.2,0.6-0.5,1-0.8l-1.4-0.4v-0.1
				c1,0,1.9-0.1,2.2-0.3l0.4-0.3l-3.2,1.3c-0.1-0.1-1-0.2-1-0.3c2.8-0.9,3.6-1.7,4.6-2.4v-0.2c0-0.1,0.7-0.4,0.1-0.8
				c0.1,0,0.8-0.1,1-0.2c0-1-0.4-1.4-1.8-1.4c0,0.1,0,0.2-0.3,0.2c0-0.1,0-0.3-0.1-0.5c-2.7,0.8-4.3,1.2-4.8,1.4
				c-0.1,0-0.3-0.1-0.5-0.2c0,0-0.1,0.9-0.1,0.9c0,0,0,0.8,0,0.8h-0.9c-0.2,1-0.3-0.5-0.5-0.3c-1.3,0.5-3.2,0.6-5.9,1.4l-0.5-0.6
				c-3.1,0.9-6.6,2-10.4,3.6c-6.5,2.1-12,4.9-16.4,6.4c-0.3-0.2-0.7,0.4-1.2,0.4H202l-2.3-2v-0.2c-2,0.5-2.5,4.1-6.5,6.1h-2.5v-4.5
				c0-4.4,0-7-0.6-7.9c-1.3-1.7-1.4-2.7-1.4-2.8c0.1,0,0.5-0.2,0.6-0.7c0-0.2-1.2-0.4-2-0.4l-0.7-0.9v-0.2c0-0.4,0.6-0.5,0.5-0.5
				c-1.4,0.4-1.6,0.8-1.6,1.3c-2.5,2.3-4.3,4.8-6,7.5c-2,2-3.3,3.9-4.2,5.6c-0.9,1.6-2,3.3-3.2,5c-1.2,1.2-2.1,2.9-3,5
				c-2.5,4-4.7,6.1-4.7,6.3C162.3,74.8,158.7,79.4,156.7,85.3z M202.3,79.4c-0.1,0-0.3,0-0.5,0.1l0.3-0.9h0.2V79.4z M230.1,44.6h0.1
				c0,0.2-0.1,0.3-0.3,0.3h-0.2C229.8,44.7,229.9,44.6,230.1,44.6z M180.7,58.2v0.2c-1,1.2-1,1.9-1,2v2.4h2c0,0-0.8-1.9-0.1-2.9
				c0-0.4,0.1-3.1,2.1-6.1v2.1h2c0,0-2-1.5-3-1.5v-0.4l1.8-0.9c0-0.1,0.5-0.3,0.4-0.5c0.9-1.5,1.8-2.3,1.9-2.3
				c0,0.8,0.2,1.3,0.3,1.4c-0.1,0-0.1,0.1-0.1,0.2l0.2,1.1l-1,0.4c0.1,0.2-0.6,0.4-0.6,0.7v0.5c0,2.7-1,4.2-1,4.5V60l1.1,1.4
				c-0.8,0.8-2.4,3.4-6.6,5.4H179l1.6-3.8l-0.4,0.1c-1,2-1.7,3.7-2.1,3.7H178C180,63.8,179.7,59.3,180.7,58.2z"/>
		</g>
		<g>
			<linearGradient id="SVGID_11_" gradientUnits="userSpaceOnUse" x1="250.9391" y1="67.2695" x2="289.6777" y2="67.2695">
				<stop  offset="0" style="stop-color:#EEB21E"/>
				<stop  offset="1" style="stop-color:#F3D628"/>
			</linearGradient>
			<path class="st10" d="M262.1,58.7c-3.7,6.1-5.9,10.2-6.6,12.3c-0.7,0-1.2,1.1-1.7,3.2c-1.1,2.8-1.7,5.5-1.7,8
				c-0.2,0-1.1-0.1-1.1-0.3c0-2.7-0.2-6.2,1.8-10.6V71l0.4,0.1c-1.7,4.3-2.2,8.7-2.2,11.1c0,2.6,1.1,5.5,2.4,6.5h-0.2
				c-0.4,0-0.7-1.6-0.7-1.7l-0.4-0.4c1.1,0.9,2.1,2.1,3.2,2.5c2.1,2,4,3.5,5.8,3.5h0.8c1.1,0,2.3-0.9,3.4-1.3c3-1.2,4.4-2.6,4.4-3.4
				c3.7-3.1,6.9-6.8,9.7-10.7c0.9-1.7,1.5-2.7,1.7-2.7c1.7-2.8,2.7-4.5,3.2-4.8l-0.2-0.4c0.4-0.4,0.7,0.3,0.7,0l0.4,1.2h-1.7v-2.3
				l0.8-0.4c0.1,0,0.6,0.1,0.6,0.2l-0.4-0.2l-1-0.5v-0.2l2.2,2.3h0.2c0,0-0.1-1.3-0.2-1.3c0-0.2,0.1-0.8,0.4-0.9
				c0-0.1-1.3-0.4-1.4-0.4c0.4-1.6-0.2-2.7-0.2-2.7V65c1,0,1.5-0.1,1.5-0.4c0-0.2-0.6-0.3-0.9-0.3l0.3-1v1.4h2.1l-0.4,0.6
				c0-0.1,0.1-0.6,0.2-0.6h0.2l0.3-1.1c0.5-0.8,1-3.4,1.5-6.4l-0.2-0.7l0.2-1.7c0-0.9-0.1-1.7-0.2-2.4c0-0.8-0.9-2.5-2.6-4.8
				c-1.7-2.1-3.1-2.6-4.3-3c-1,0.2-1.7,1.1-1.9,1.1h-0.2c-1.8-2-3.3-4-4.4-4c-1.4,0.6-3,0.6-3,1c-4.9,4.9-9.5,8-10.5,10v2h2.1
				c2.5-3,3.9-4,4.1-4h0.2l-2.7,1.8C266,54.2,264.6,55.6,262.1,58.7z M269.6,57.7c4.6-5.6,8.2-9.3,10.9-10.9c1,0.3,1.5,0.5,1.5,0.7
				l-1.3,0.5c0,0.2,0,0.7,1,1.5v2.2c0,0.2,0.8,0.4,0.6,0.4c-0.9,3.9-1.3,6.8-2.3,8.9c-1.7,2.6-2.3,4.3-2.3,4.9
				c-1.3,1.3-1.9,2.4-1.9,3.2c-0.6,0.2-1.5,1.4-2.7,3.4c-2.6,3.7-4,5.6-4.4,5.6c-4,4.6-7.8,7.2-11.4,7.8l-0.2-0.8
				c0.1-3,0.9-6.1,2.2-9.2C260,72.4,263.4,66.4,269.6,57.7z"/>
		</g>
		<g>
			<linearGradient id="SVGID_12_" gradientUnits="userSpaceOnUse" x1="286.6191" y1="65.4507" x2="287.1113" y2="65.4507">
				<stop  offset="0" style="stop-color:#EEB21E"/>
				<stop  offset="1" style="stop-color:#F3D628"/>
			</linearGradient>
			<path class="st11" d="M286.6,65.9h0.3c0-0.1,0.1-0.3,0.2-0.5V65C286.9,65,286.8,65.3,286.6,65.9z"/>
		</g>
		<g>
			<linearGradient id="SVGID_13_" gradientUnits="userSpaceOnUse" x1="283.3496" y1="66.7229" x2="324.834" y2="66.7229">
				<stop  offset="0" style="stop-color:#EEB21E"/>
				<stop  offset="1" style="stop-color:#F3D628"/>
			</linearGradient>
			<path class="st12" d="M283.3,88.9c2.9,1,3.5,1.8,3.5,2.4c1.9-0.2,1.9-0.6,1.9-1.2v-0.4l-1-0.6v-0.2c0-0.3,1.4-0.9,1.8-1.8
				c0.9-1.5,1.8-4.7,4-9.6c1.2-2.9,2.2-4.6,2.2-5v-0.6c1-1.3,2.1-1,2.4-1c1.9-3.1,4-4,4-5h-1.5V64c0,0.3,0.5,0.7,0.5,1.2l-0.7,3
				l0.4,0.4l0.5-0.2c1.1-3,1.9-4.6,2.1-4.6L302,78c0.1,0-0.9,0.1-0.9,0.2c-0.1,0.2-1.3,0.5-1.3,0.8v0.2c0,3.6,1.5,6.4,2.3,8.4
				c0,0.8,2.2,1.7,5.6,2.6c0.2-0.1,0.8-0.2,1.3-0.2l1.4-5.6c2.5-7.1,4.6-12.2,6.1-16.9l0.7,1.3h0.2c1.5-4,3.2-9,5-12.1l-0.2-0.9
				c0.6-0.3,1.5-2.5,2.8-6c0-0.3-0.1-0.5-0.2-0.5c0-0.8-0.8-2.1-2.4-3.9c-0.3,0-1,0.2-2,0.8c-0.4,0-1.4,2.8-3.2,6.7
				c-3.3,6.8-6.1,14.9-8.4,22.9h-1.9v-1.9c0-1.9,2.3-3.1,3.1-8.1h0.6c0.3,0-1.7-2.3-1.7-2.6v-6.8c0-0.2,0-0.4,0.3-0.4
				c-0.8-5.3-1.3-8-2.3-8v-2.4c-2-3.1-1-2.8-1.9-2.8H304c-0.6,0-2-0.8-2.4-0.5c-0.3,1.3-1.8,2.9-2.8,6.5v0.6l2.1,1.4h0.4
				c-0.3,0-0.4,1.2-0.4,1.4l-0.6-0.4h-2.5V50c0,0.3,1.3,0.4,1.7,0.4l0.4,0.4c-0.1,0,0.1-0.1,0.1-0.2c-0.5,0-1,1.7-1.9,5
				c-0.8,1.2-1.1,2-1.1,2.2l0.2,0.4c-1.1,2.1-2.9,5.7-5.2,10.8C286.2,80.9,283.3,87.5,283.3,88.9z M302.6,62.6h0.4l-0.2,1h-0.4
				L302.6,62.6z M298.8,55.2c0-0.2,0.1-0.4,0.4-0.4V55c0,0.3-0.1,0.4-0.4,0.4V55.2z"/>
		</g>
		<g>
			<linearGradient id="SVGID_14_" gradientUnits="userSpaceOnUse" x1="116.8086" y1="108.9341" x2="117.3877" y2="108.9341">
				<stop  offset="0" style="stop-color:#EEB21E"/>
				<stop  offset="1" style="stop-color:#F3D628"/>
			</linearGradient>
			<path class="st13" d="M117.2,108.5c-0.2,0-0.4,0.1-0.4,0.4v0.4l0.6-0.4L117.2,108.5z"/>
		</g>
		<g>
			<linearGradient id="SVGID_15_" gradientUnits="userSpaceOnUse" x1="118.1592" y1="106.4268" x2="118.8926" y2="106.4268">
				<stop  offset="0" style="stop-color:#EEB21E"/>
				<stop  offset="1" style="stop-color:#F3D628"/>
			</linearGradient>
			<path class="st14" d="M118.9,106v-0.2h-0.3c0,0.2-0.1,0.5-0.4,0.8v0.4C118.3,107,118.6,106.7,118.9,106z"/>
		</g>
		<g>
			<linearGradient id="SVGID_16_" gradientUnits="userSpaceOnUse" x1="127.5713" y1="115.8393" x2="129.4609" y2="115.8393">
				<stop  offset="0" style="stop-color:#EEB21E"/>
				<stop  offset="1" style="stop-color:#F3D628"/>
			</linearGradient>
			<path class="st15" d="M127.6,116.2l0.2,0.4l1.7-1.2l-0.2-0.4C128.7,115.1,128.1,115.5,127.6,116.2z"/>
		</g>
		<g>
			<linearGradient id="SVGID_17_" gradientUnits="userSpaceOnUse" x1="51.7168" y1="125.3633" x2="134.0215" y2="125.3633">
				<stop  offset="0" style="stop-color:#EEB21E"/>
				<stop  offset="1" style="stop-color:#F3D628"/>
			</linearGradient>
			<path class="st16" d="M119.3,146c-0.7-2.2-1.4-4-2.3-5.4c0-0.7-1.3-2.4-4.1-6.7c-1.7-2.4-2.5-2.2-2.5-3.2h0.4
				c2.7-2,1.9-4.5,2.9-4.5v1.5h1.5c0,0,1.3-2.1,4-4.1c0.4,0,2-1.6,4.6-3.7l-1-0.6c0.4,0-0.2-0.4-0.2-0.6v2h-1v-2.6
				c0-0.1,3.3-1.5,6.6-4.1c1.3-1.7,2.6-2.5,2.9-2.5c0,0.4,0.1,0.7-0.1,1.2c0.1,0,0.3,0.1,0.3,0.2c1.7-1.4,2.6-3,2.6-4.8
				c0-0.7-0.4-2-1.3-3.9c-0.8-2-2.1-3.7-4-5c-1.6-1-4.2-1.7-8.1-2.1c0,0.1-0.1,1-0.2,1c-0.2-0.1-0.5,0.6-0.8,0.6h-0.4
				c-0.4,0-0.8-0.7-1.1-0.5c-0.3-0.1-0.7-0.5-1.2-0.5c0,0.1-0.1-0.1-0.2,0c-0.1,0-0.1-0.1-0.2-0.1c0,0-0.1,0-0.1,0
				c0-0.1-0.1-0.3-0.2-0.6c-3,0.8-4.8,1.3-5.2,1.6c-0.1,0-0.3-0.1-0.5-0.2c-0.8,0.5-3.5,1.4-8.1,2.7l-0.5-0.4c-3.4,1-7.3,2.3-11.4,4
				c-14.6,4.7-25.5,8-30.4,10c-4.4,1.6-7.3,2.8-8.3,3.3v0.7c0,0.1,1.2,0.2,1.4,0.2c0.9,1.5,2.5,3.6,3.6,4.3c1.4,1.8,2.8,3.6,3,3.6
				H60l0.8-1.2c0,0.1,0.1-0.3,0.2-0.3c0.8-0.3,2.6-1.1,5.2-2c2.9-1.4,5.5-2.6,7.9-3.3c3.1-1.1,4.7-0.5,5.1-0.5
				c2-1.2,3.2-0.7,3.5-0.7H83l-2.3-1.8v0.2l1.2,0.3c-1.3,1.7-1.4,2.9-1.4,3.7c-1.1,2.6-2.4,4-2.8,4c-0.7,2.2-2.1,3.3-3.1,3.3v2.3
				h1.9l0.3-1.1c0,0.1,0.1-0.3,0.2-0.3l-0.3,0.3c-0.1,0-0.3-0.2-0.5-0.3c-0.1,0.1-0.6,0.8-1.4,2.4l0.2,0.3c-0.3,0.2-0.7,0.6-1.2,1.2
				c0,0.1,0.1,0.3,0.2,0.5c0,0.1-0.3,0.3-0.9,0.5c0,0.2,0.1,0.3,0.3,0.3c-0.5,0.5-0.7,0.9-0.7,1.2c-0.5,0-1.4,1.2-2.8,3.7l0.3,0.9
				c-1.8,1.9-2.7,3.2-2.7,3.9l-0.8,0.3c-0.4,0.4-2.2,1.6-3.2,3.9v0.3l1.9,0.5c0.6,0.7,2.5,2.7,4.6,3.9c1.4-2,4.5-5.5,8.2-11.5h0.3
				c0,0-4.1,1-7.1,6.2v1.8H74l3-5c1.6-3,2.5-3.9,2.8-3.9c2.7-4.5,4.1-6.1,4.1-7.1h-0.2l-2.6,4h-0.2l2.6-5H84c2.5-3,4.8-8.2,7-13.1
				c0-0.1-0.1-0.7-0.2-1c0.1-0.2,0.2-0.6,0.2-0.9c0-0.8-0.5-1.9-1.6-3.3c0.2-0.3,2.3-1.2,6.5-2.7c1.4-0.4,2.5-0.9,3.5-1.6
				c1.8-0.3,3.5-0.8,5.1-1.6c1.5-0.3,2.9-0.8,4.3-1.5c-1.5,2.7-3.3,4.1-3.4,4.2c0-0.2-0.7-0.5-0.7-0.9v-0.4c-1,0.4-0.3,0.7-0.3,0.9
				c-3,5-3.9,7.8-3.9,8.3c-1.5,1.8-2,2.9-2,3.2L90,134.7c-2.4,3-3.6,4.7-3.6,5.2l0.6,1c1,0.9,1.6,1.6,1.6,2.1l1.2,0.9
				c0.1,0,0.5,0.9,1.2,1.9h0.7c0.2,0-0.9-3.2,1.1-5v0.2c-1,0.4,0.4,0.6,0.2,0.6c0,0.1,0.5,0.3,0.6,0.6c0,0.2-0.4,2-1.5,3.1
				c0,0.3,0.3,1.5,0.6,1.5h0.2c4-5,7.5-10,10.6-15h0.4c0.6,1,1.3,1.2,2.1,1.2l0.8-0.9c0.5,0.1,1,0.4,1.7,1.5l8.6,16.4
				c1.5,1,2.3,1.6,2.3,2.1c0.2,0,0.3-0.1,0.6-0.2l1.2,0.6c0.1-0.3,0.2,0.5,0.2,0.3l0.4,1.1h-1.9v-2.4c0-0.3,0.6-0.6,0.6-0.8
				C120.4,150.3,120.7,148.7,119.3,146z M71.1,139.4c-0.1,0-0.3,0.1-0.5,0.2l0.3-1h0.2V139.4z M101.4,101.5h-0.2
				c0-0.2,0.1-0.3,0.4-0.3h0.2C101.7,101.4,101.6,101.5,101.4,101.5z M95.7,139.3c-0.6,0.9-1,1.3-1.2,1.3c0-0.4,0.4-1,1.2-1.5V139.3
				z M95.9,139.6v-0.2c0-0.2,0.1-0.3,0.4-0.4h0.2C96.2,139.4,96,139.6,95.9,139.6z M97.4,137.7c-0.5,0.7-0.8,1.1-1,1.1l-0.4-0.2
				c0.1-0.7,0.3-1.1,0.6-1.1h0.2v0.2l-0.4,0.6h0.2c0.4,0,0.6-0.3,0.6-0.8h0.2V137.7z M100.5,121.2c0.1-0.2,0.2-0.4,0.2-0.6h0.2v0.2
				c-0.1,0.3-0.2,0.5-0.2,0.6h-0.2V121.2z M100.3,133.5l-0.3,0.8h-0.2c0.3-0.4,0.4-0.7,0.4-1h0.2V133.5z M101.4,132
				c-0.2,0.5-0.4,0.8-0.6,0.8v-0.2c0.3-0.3,0.4-0.6,0.4-0.8h0.2V132z M102.6,131.2l-0.4,0.6h-0.4c-1.5,3-2.4,4-2.5,5h-2.6v-2.5
				l4.4-4.8c0.2,0.1,1,0.6,1.3,0.6C102.1,130.4,102.6,131,102.6,131.2z M110.4,119.1c4.8-8.7,7.5-13.4,8.3-14.2
				c0.1,0,0.2,1.1,0.2,1.2l1.3,0.7h0.5l0,0h2.2l1.4-1c0-0.1,0.1-0.8,0.2-0.8l0.4,1.1l1.9,0.7h0.2c-0.4,1-1.9,2.6-4.6,4.9
				c-1.8,1.8-5.2,3.6-10.2,6.5c-0.7,1.5-1.5,2-2.1,2.2C110.1,120.2,110.2,119.5,110.4,119.1z"/>
		</g>
		<g>
			<linearGradient id="SVGID_18_" gradientUnits="userSpaceOnUse" x1="150.3301" y1="110.2456" x2="150.7158" y2="110.2456">
				<stop  offset="0" style="stop-color:#EEB21E"/>
				<stop  offset="1" style="stop-color:#F3D628"/>
			</linearGradient>
			<path class="st17" d="M150.3,110.6c0.3,0,0.4-0.1,0.4-0.4v-0.2h-0.4V110.6z"/>
		</g>
		<g>
			<linearGradient id="SVGID_19_" gradientUnits="userSpaceOnUse" x1="189.0976" y1="107.8159" x2="190.5625" y2="107.8159">
				<stop  offset="0" style="stop-color:#EEB21E"/>
				<stop  offset="1" style="stop-color:#F3D628"/>
			</linearGradient>
			<polygon class="st18" points="190.6,107.9 190.4,107.5 189.1,107.7 189.1,108.1 190.1,108.1 			"/>
		</g>
		<g>
			<linearGradient id="SVGID_20_" gradientUnits="userSpaceOnUse" x1="117.7168" y1="125.3511" x2="203.6211" y2="125.3511">
				<stop  offset="0" style="stop-color:#EEB21E"/>
				<stop  offset="1" style="stop-color:#F3D628"/>
			</linearGradient>
			<path class="st19" d="M193.9,123.8h-0.2c0,1-1.2,2-3.5,3h-0.2l1-1.1c0.9,0,4.5-2.9,11-9.9h-2.3v-1.6v0.6v2h2.3
				c1.5-2,0.7-5.1,0.7-6.4v-0.6c0-1,0.7-2,0.2-3.1c0.2,0,0.7-0.1,0.7-0.2c-1.1-1.8-1.5-2.8-1.7-2.9c-1-2.5-1.9-3.7-2.8-3.7
				c0-0.8-3.5-1.6-10.5-2.3c-2.6,0.3-4.7,1.4-6.2,1.9c-1.2-0.5-2.1,0.4-2.7-0.6h-0.4c-0.6,1-1.1,0-1.5,0
				c-5.3,10.5-7.9,15.8-7.9,16.8c-3.2,6.6-5.4,11.2-6.6,14.1l-8.8,19.3c-0.2-1.4-0.3-2.6-0.3-3.6c0-0.6,0.1-1.5,0.2-2.4l-0.2-0.4
				c0.1-4,0.5-6.7,1-8.3c0-0.2-0.1-1.1-0.2-2.8c0-0.3,0.1-1.3,0.2-2.9c-0.1-0.3-0.2-0.5-0.2-0.6c0.3,0,0.4-0.5,0.4-1.4
				c0-1,1.9-2.5,5.7-4.6l-0.2-0.4l-0.8,0.4c0.2-0.9,0.5-0.5,1-0.5c0,0.1,0.1,1.1,0.2,1.1h0.2c0.3,0-1.8-2.2-0.8-2.2v-0.2l0.6-0.4
				l1.4-0.6c0-0.2,0.1-0.4,0-0.6c0-0.1-0.4-0.5,0.9-1.4c1.1-1.3,1.1-2,1.1-2v-0.2l1,0.7c0.4,0,2.1,0.8,2.6-0.2h-0.4l-2,1h-0.2
				c0.4,0,1.3-2.2,2.5-3l1.6-1.5c0-0.2-0.6,0.5-1.8-0.5h-0.4l-2-1.6v-0.2c-2,0.5-3.4,3.8-7.7,6.8h-2.3v-5.1c-1-4.8-0.2-7.7-0.9-8.7
				c-1.4-1.9-1.6-2.9-1.6-3.1c0.2,0,0.5-0.3,0.6-0.8c0-0.3-1.5-0.4-2.3-0.4l-0.8-1v-0.2c0-0.4,0.8-0.6,0.6-0.6
				c-1.6,0.4-1.8,0.9-1.8,1.4c-2.7,2.5-4.7,5.2-6.6,8.3c-2.2,2.2-3.6,4.2-4.6,6.1c-1,1.8-2.1,3.6-3.5,5.5c-1.3,1.4-2.4,3.2-3.3,5.5
				c-2.8,4.4-5.3,6.7-5.3,6.9c-2.3,3.6-5.6,8.7-8.6,15.2v0.2c0,1.3,4.3,4.8,8.3,7.8h0.2c0.1,0,0.4-1.5,1-2.3
				c1.1-2.6,1.8-4.5,2.2-4.5c0.3,0,1.7-2.8,4-7.8c1.8-0.2,2.7-0.5,2.7-0.7c2.4-1.2,3.8-2.1,4.4-2.8c0.1,0,0.3,0,0.6,0.2
				c0.8-0.3,1.2-0.6,1.2-0.8c2.3-0.9,3.5-1.5,3.5-1.8c0.2-0.3,1.6-1.3,4.4-2.9c-0.3,2.4-0.4,5.7-0.6,9.8c0.1,0-0.7,0.1-0.7,0.2
				c-0.1,0-1.1,0.1-1.1,0.2v1.4l2,1.9h-0.2c0.1,4,0.3,4.6,0.6,5.2c0,2.2,1.4,3.2,4.1,3.8l0.8-0.8c-0.2-0.9-0.3-1.8-0.4-2.5l3.7,2.7
				l1-0.3l0.6,0.4c0.3,0,0.4-0.4,0.4-1c2.1-4.2,3.1-6.6,3.1-7.1c2.2-3.4,3.3-4.8,3.3-5.8c0.8-1.2,1.2-0.7,1.2-1.7h1
				c1.1,2,0.5,1.4,1.5,1.4v-0.4l0,0v-0.2c2-0.7,5.4-2.1,9.1-4.4c2.2-1.9,4-3.1,4.4-3.5c4.8-3.3,8.2-4.9,9.8-6.3
				C194.1,123.2,194.2,124.8,193.9,123.8z M161.7,119.4c0.2,0,0.4-0.1,0.6-0.2h0.2l-0.2,0.4h-0.6V119.4z M151.5,110.1l-1.1,0.4
				c0.1,0.2-0.7,0.5-0.7,0.8v0.6c0,3,0,4.6-1,4.9v1.2l1.2,1.2c-0.9,0.9-2.7,3.5-7.3,5.5h-0.2l1.8-3.8l-0.4,0.4
				c-1.1,2.2-1.9,4.4-2.4,4.4h-0.2c2.3-4,2.5-8.5,3.5-9.7v0.2c-1,1.4-2,2.1-2,2.2v2.3h2.7c0,0-0.8-2,0-3c0-0.4,0.3-3.3,2.3-6.6v1.6
				h2c0,1-2-1.1-3-1.1v-0.4l1.8-1c0-0.1,0.5-0.3,0.4-0.6c1-1.7,1.9-2.5,2.1-2.5c0,0.9,0.2,1.4,0.3,1.6c-0.1,0-0.1,0.1-0.1,0.2
				L151.5,110.1z M180.7,119.5v0.4c0,0,0.7-0.1,0.5-0.2c0,0.7,0.1,1.2-0.7,1.5l-0.4-0.4c-0.4,0.2-0.5,0.4-0.5,0.6l0.3,0.4
				c-1,0.9-1.4,2.6-1.4,2.6c-0.2,0-0.4,0.3-0.6,0.3h-0.2c-2.9,2-4.4,2.9-4.6,2.9l0.2,0.1h-0.2l-0.4-1.1c0-0.4,0.3-1.4,1-2.1
				l-0.2-0.6l2.5-4.5c0-0.2-0.1,0.8-0.2,0.5c3.2-7.4,4.8-10.2,4.8-10.2h0.4c0,0,0.6,1,1.7,2h1.2c0.1,0,0.2-0.1,0.2-0.2
				c3.2-1.3,6.7-2.8,10.4-2.8h-1.8v-2.1c0,0.7-3,4.4-10,11v0.1l0,0v0.7c0,0-0.4-0.1-0.6-0.2c-0.3,0.1-0.4,0.2-0.4,0.2v0.2l1.1,0.4
				c-0.2,0,0.1-0.1-0.2-0.2l-1.2,0.2L180.7,119.5z M185.7,128.5c0,0-0.7,0.3-1.8,1.3h-0.2c1.1-1,1.7-2,1.7-2h0.3V128.5z
				 M184.7,127.8v-0.4l4.8,0.4h0.2C189.8,127.8,186.7,126.4,184.7,127.8z"/>
		</g>
		<g>
			<linearGradient id="SVGID_21_" gradientUnits="userSpaceOnUse" x1="228.0957" y1="107.8159" x2="229.5615" y2="107.8159">
				<stop  offset="0" style="stop-color:#EEB21E"/>
				<stop  offset="1" style="stop-color:#F3D628"/>
			</linearGradient>
			<polygon class="st20" points="229.6,107.9 229.4,107.5 228.1,107.7 228.1,108.1 229.1,108.1 			"/>
		</g>
		<g>
			<linearGradient id="SVGID_22_" gradientUnits="userSpaceOnUse" x1="193.456" y1="124.9482" x2="242.6201" y2="124.9482">
				<stop  offset="0" style="stop-color:#EEB21E"/>
				<stop  offset="1" style="stop-color:#F3D628"/>
			</linearGradient>
			<path class="st21" d="M232.9,123.8h-0.2c0,1-1.2,2-3.5,3h-0.2l1-1.1c0.9,0,4.5-2.9,11-9.9h-2.3v-1.6v0.6v2h2.3
				c1.5-2,0.7-5.1,0.7-6.4v-0.6c0-1,0.7-2,0.2-3.1c0.2,0,0.7-0.1,0.7-0.2c-1.1-1.8-1.5-2.8-1.7-2.9c-1-2.5-1.9-3.7-2.8-3.7
				c0-0.8-3.5-1.6-10.5-2.3c-2.6,0.3-4.7,1.4-6.2,1.9c-1.2-0.5-2.1,0.4-2.7-0.6h-0.4c-0.6,1-1.1,0-1.5,0
				c-5.3,10.5-7.9,15.8-7.9,16.8c-3.2,6.6-5.4,11.2-6.6,14.1l-8.9,19.6l3.9,2.9l1-0.3l0.6,0.4c0.3,0,0.4-0.4,0.4-1
				c2.1-4.2,3.1-6.6,3.1-7.1c2.2-3.4,3.3-4.8,3.3-5.8c0.8-1.2,1.2-0.7,1.2-1.7h1c1.1,2,0.5,1.4,1.5,1.4v-0.4l0,0v-0.2
				c2-0.7,5.4-2.1,9.1-4.4c2.2-1.9,4-3.1,4.4-3.5c4.8-3.3,8.2-4.9,9.8-6.3C233.1,123.2,233.2,124.8,232.9,123.8z M219.7,119.5v0.4
				c0,0,0.7-0.1,0.5-0.2c0,0.7,0.1,1.2-0.7,1.5l-0.4-0.4c-0.4,0.2-0.5,0.4-0.5,0.6l0.3,0.4c-1,0.9-1.4,2.6-1.4,2.6
				c-0.2,0-0.4,0.3-0.6,0.3h-0.2c-2.9,2-4.4,2.9-4.6,2.9l0.2,0.1h-0.2l-0.4-1.1c0-0.4,0.3-1.4,1-2.1l-0.2-0.6l2.5-4.5
				c0-0.2-0.1,0.8-0.2,0.5c3.2-7.4,4.8-10.2,4.8-10.2h0.4c0,0,0.6,1,1.7,2h1.2c0.1,0,0.2-0.1,0.2-0.2c3.2-1.3,6.7-2.8,10.4-2.8h-1.8
				v-2.1c0,0.7-3,4.4-10,11v0.1l0,0v0.7c0,0-0.4-0.1-0.6-0.2c-0.3,0.1-0.4,0.2-0.4,0.2v0.2l1.1,0.4c-0.2,0,0.1-0.1-0.2-0.2l-1.2,0.2
				L219.7,119.5z M224.7,128.5c0,0-0.7,0.3-1.8,1.3h-0.2c1.1-1,1.7-2,1.7-2h0.3V128.5z M223.7,127.8v-0.4l4.8,0.4h0.2
				C228.8,127.8,225.7,126.4,223.7,127.8z"/>
		</g>
		<g>
			<linearGradient id="SVGID_23_" gradientUnits="userSpaceOnUse" x1="291.5117" y1="106.4268" x2="292.2441" y2="106.4268">
				<stop  offset="0" style="stop-color:#EEB21E"/>
				<stop  offset="1" style="stop-color:#F3D628"/>
			</linearGradient>
			<path class="st22" d="M292.2,106v-0.2h-0.3c0,0.2-0.1,0.5-0.4,0.8v0.4C291.7,107,291.9,106.7,292.2,106z"/>
		</g>
		<g>
			<linearGradient id="SVGID_24_" gradientUnits="userSpaceOnUse" x1="290.1621" y1="108.9341" x2="290.7402" y2="108.9341">
				<stop  offset="0" style="stop-color:#EEB21E"/>
				<stop  offset="1" style="stop-color:#F3D628"/>
			</linearGradient>
			<path class="st23" d="M290.5,108.5c-0.2,0-0.4,0.1-0.4,0.4v0.4l0.6-0.4L290.5,108.5z"/>
		</g>
		<g>
			<linearGradient id="SVGID_25_" gradientUnits="userSpaceOnUse" x1="300.9238" y1="115.8393" x2="302.8144" y2="115.8393">
				<stop  offset="0" style="stop-color:#EEB21E"/>
				<stop  offset="1" style="stop-color:#F3D628"/>
			</linearGradient>
			<path class="st24" d="M300.9,116.2l0.2,0.4l1.7-1.2l-0.2-0.4C302,115.1,301.5,115.5,300.9,116.2z"/>
		</g>
		<g>
			<linearGradient id="SVGID_26_" gradientUnits="userSpaceOnUse" x1="227.7099" y1="125.46" x2="335.833" y2="125.46">
				<stop  offset="0" style="stop-color:#EEB21E"/>
				<stop  offset="1" style="stop-color:#F3D628"/>
			</linearGradient>
			<path class="st25" d="M335.4,101.4c-1.6-2.3-3.2-2.6-4.9-2.6h-3.2c-3.3,0-7.1,0.3-11.5,2.4c-4.2,1.8-7.3,3.1-9.3,4.6
				c-0.1-0.3-0.3-0.9-0.5-1.3c-0.8-2-2.1-3.8-4.1-5.1c-1.6-1-4.3-1.8-8.1-2.2c0,0.1-0.1,0.9-0.2,0.9c-0.2-0.1-0.5,0.6-0.8,0.6h-0.4
				c-0.5,0-1-0.7-1.5-0.4l-0.4-0.6c-1.9,0.1-3,0.2-3.5,0.6l-0.4-0.3c-0.6,0.4-1.1,0.7-1.6,1c0-0.7-0.2-1.3-0.5-1.9
				c-8.7,1.9-17.3,5-25.8,7.8c-1-1.6-2-2.2-3.1-3.2h-0.2l-0.5-0.6c-1.5,4.6-2.8,6.9-3.9,8c0,0.2,0.1,0.2,0.3,0.5c-1,1-1.6,1.9-1.9,3
				c-1.6,3.8-4.7,9.3-9.2,16.6c-4,5.8-6.3,8.7-7,8.7c-3.2,4.1-5.1,6.2-5.8,6.3c0,0.9,0.7,2.1,2.2,3.6c1.1,1,1.7,1.8,1.7,2.4
				c1.8,1.2,2.7,1.9,2.7,2.2c1.2-0.2,2.1-0.5,2.6-1c7.8-3.2,12.1-4.8,12.8-4.8c3.3-1,6.1-2.2,8.4-3.6l-0.2,0.7
				c-1.7,0.6-2.7,2.1-2.9,2.1h-2.2v-2.6c2-1,5.1-2,6.5-2.9l0.8,0.6c1,0.9,1.8,1.6,1.8,2.1l1.3,0.9c0.1,0,0.6,0.9,1.3,1.9h0.7
				c0.2,0-1.3-3.2,0.7-5v0.2c0,0.4,0.6,0.6,0.4,0.6c0,0.1,0.6,0.3,0.7,0.6c0,0.2-0.3,2-1.5,3.1c0,0.3,0.4,1.5,0.6,1.5h0.2
				c4-5,7.5-10,10.6-15h0.4c0.6,1,1.3,1.2,2.1,1.2l0.8-0.9c0.5,0.1,1,0.4,1.7,1.5l5,9.4c-0.3,0.1-1.5,0.2-1.7,0.3
				c-3,1.1-5.2,1.7-5.2,1.8v0.2c0,0.5,2.1,1.3,2.9,2.3c0,1.3,1,1.9,2.1,1.9c0.5,0.8,1.2,1.3,1.9,1.5c1.4-0.4,2.6-0.8,3.6-1.3
				l0.1,0.1c0.1,0.1,0.2,0.1,0.3,0.2l-1,0.4c-2.1,0.6-3.9,1-3.9,1.3v0.2c0,0.3,0.9,0.4,1.2,0.4c0.6-0.3,1.2,0.4,1.2,0.2
				c1.4-0.2,2.7,1.2,2.9,0.2h0.2c0.3,0,0.6-0.8,0.9-0.8c0.3,0.3,0.5,0.1,0.5,0.4c0.2,0,0.3-0.3,0.6-0.4l1.2,0.5
				c0.1-0.3,0.2,0.4,0.2,0.3l0.4,1h-2.2v-2.4c0-0.2,1-0.3,0.9-0.5c1.4-0.5,2.8-1.4,5.6-2.6c2.4-1.4,3.5-2.1,3.5-2.1v-0.4
				c0,0,1.4,2,0.9,2h-1.9V146c1-0.4,3.1-1,3.8-1.9l-1-0.4l3.2-1.7v1.8h2c0,0,0.3-1,0.8-1h0.1l0,0h-0.3l0.2-0.4c0.3,0,0-0.6,0.5-0.8
				c0-0.3-1.4-0.8-1.4-0.8v-0.2c6-2.5,10.7-3.5,12-4.8c1.4-0.5,3.7,0.1,5.7-1.9h0.2c-0.1,1-0.4,0.5-1,0.7l0.2,0.3h0.4
				c2.3-1,3.4-3.6,3.4-5c0-0.2-0.6-2.2-1.7-5.2c0-1.9-2-3.2-6.1-5.7c-4.4-1.3-8.2-2-11.5-3H311c0,0,0.6-2.1,1.9-3.1
				c1.6-0.5,2.8-1.7,3.4-2.6c0.3,0,0.1-0.6,1.3-1.3c2.6-1,3.1-1.9,3.1-2.1v2.2h1.1c0-1,1.6-2,4.9-3h1.9l1-1c0,0.1,0.1-0.2,0.2-0.2
				c1.7-0.1,3.1,0.4,4,0.1c0.2,0,0.5,1.1,0.8,1.1h0.2l0.8-1.2C335.5,103.2,335.4,101.8,335.4,101.4z M246.3,136.7
				c0,0.3-0.2,0.5-0.5,0.5h-0.3v-0.2c0-0.3,0.2-0.4,0.5-0.5h0.2V136.7z M254.2,143.9h-0.7v-0.2c0.2,0,0.4-0.1,0.7-0.2V143.9z
				 M269,139.3c-0.6,0.9-1,1.3-1.2,1.3c0-0.4,0.4-1,1.2-1.5V139.3z M269.2,139.6v-0.2c0-0.2,0.1-0.3,0.4-0.4h0.2
				C269.6,139.4,269.4,139.6,269.2,139.6z M270.8,137.7c-0.5,0.7-0.8,1.1-1,1.1l-0.4-0.2c0.1-0.7,0.3-1.1,0.6-1.1h0.2v0.2l-0.4,0.6
				h0.2c0.4,0,0.6-0.3,0.6-0.8h0.2V137.7z M273.6,133.5l-0.3,0.8h-0.2c0.3-0.4,0.4-0.7,0.4-1h0.2V133.5z M274.8,132
				c-0.2,0.5-0.4,0.8-0.6,0.8v-0.2c0.3-0.3,0.4-0.6,0.4-0.8h0.2V132z M275.9,131.2l-0.4,0.6h-0.4c-1.5,3-2.4,4-2.5,5h-2v-2.5l4-4.8
				c0.2,0.1,0.9,0.6,1.2,0.6C275.7,130.4,275.9,131,275.9,131.2z M273.8,121.4v-0.2c0.1-0.2,0.2-0.4,0.2-0.6h0.2v0.2
				c-0.1,0.3-0.2,0.5-0.2,0.6H273.8z M278.6,111.4c0-0.2-0.8-0.5-0.8-0.9v-0.4c0,0.4-0.1,0.7-0.1,0.9c-3,5-3.8,7.8-3.8,8.3
				c-1.5,1.8-2,2.9-2,3.2l-8.5,12.1c-0.9,1.1-1.6,2.1-2.1,2.8c-0.5-1.2-1.1-2-1.9-2.5c-0.7,0-1.8,0.1-3.1,0.2
				c-0.5-0.2-0.7,0.5-0.7,0.2l-8.4,3.3h-0.2c1.2-1,2.4-3.5,3.6-5c1.1-2.7,1.9-4.6,2.7-4.6c0.9-1.8,1.6-3.1,1.9-3.4
				c8.6-2.6,13.4-4.4,14.2-5.2c2.1,0,3.1-0.2,3.1-2.8c-0.5-0.5-0.7-0.1-0.7-0.1h-1c-2.2,0-6.4,1-12.5,2h-0.2c1.8-4,2.7-7.7,2.7-7.8
				c0-0.4,1-1.4,3.1-2.3c10-3,16.7-5.6,20.3-7.4c0.2-0.1,0.4-0.4,0.6-0.7c0.1,0.2-0.3,0.3-0.1,0.5
				C281.1,108.1,278.8,111.2,278.6,111.4z M283.8,119.1c4.8-8.7,7.5-13.4,8.3-14.2c0.1,0,0.2,1.1,0.2,1.2l1.4,0.7h1.1l0,0h1.6l1.3-1
				c0-0.1,0.1-0.8,0.2-0.8l0.4,1.1l1.9,0.7h0.2c-0.4,1-1.9,2.6-4.6,4.9c-1.8,1.8-5.2,3.6-10.2,6.5c-0.7,1.5-1.5,2-2.1,2.2
				C283.4,120.2,283.5,119.5,283.8,119.1z M320.8,124.6c0.8-0.1,1.4-0.2,1.7-0.2l0.7,0.4c-2.4,2.2-6,4.5-10.8,6.8
				c-9.6,4.4-16.8,7.6-21.6,9.6c-0.1-0.2-0.2-0.4-0.3-0.6c0-0.7-1.4-2.4-4-6.7c-1.7-2.4-2.5-2.2-2.5-3.2h0.4c2.7-2,2.5-4.5,2.5-4.5
				v1.5h1.9c0,0,1.3-2.1,4-4.1c0.4,0,2-1.6,4.6-3.7l-1.2-0.6c0.4,0-0.4-0.4-0.4-0.6v0l0,0v-0.6c0-0.1,2.9-1.5,6.3-4.1
				c0.8-1,1.7-1.7,2.1-2.1c0.1,0.1,0.4,0.2,0.5,0.2c0,0,0.1,0.1,0.2,0.1c-0.1,0.1,0,0.2-0.1,0.4c0.1,0,0.2,0.1,0.2,0.2
				c0.1,0,0.1-0.1,0.2-0.1c1,2.4,2.1,3.8,3.2,4.1C308.2,119.8,312.4,122.3,320.8,124.6z"/>
		</g>
	</g>
</g>
</svg>
